<svg width="20" height="20" viewBox="0 0 20 20" fill="none" xmlns="http://www.w3.org/2000/svg">
<path d="M9.89978 0.299805C4.59978 0.299805 0.299805 4.5998 0.299805 9.8998C0.299805 15.1998 4.59978 19.4998 9.89978 19.4998C12.4998 19.4998 14.8997 18.4998 16.6997 16.5998C16.9997 16.2998 16.9997 15.7998 16.6997 15.4998L15.1997 13.9998C15.4997 13.5998 15.5998 12.9998 15.2998 12.4998C14.8998 11.7998 14.3997 11.1998 13.6997 10.7998C13.4997 10.6998 13.1998 10.5998 12.8998 10.5998C12.7998 10.5998 12.6997 10.5998 12.5997 10.5998C12.2997 10.6998 11.8997 10.7998 11.5997 11.0998C11.4997 11.1998 11.3997 11.1998 11.1997 11.1998C10.9997 11.1998 10.8997 11.0998 10.6997 10.9998C9.79971 10.2998 8.9998 9.4998 8.2998 8.5998C8.0998 8.2998 8.0998 7.9998 8.2998 7.6998C8.4998 7.3998 8.6998 7.0998 8.7998 6.6998C8.89981 6.2998 8.79973 5.8998 8.59973 5.5998C8.19973 4.8998 7.59978 4.2998 6.89978 3.9998C6.69978 3.8998 6.39971 3.7998 6.19971 3.7998C5.79971 3.7998 5.39973 3.9998 5.09973 4.2998C4.79973 4.5998 4.4998 4.8998 4.2998 5.2998C4.0998 5.5998 3.99973 5.9998 4.09973 6.3998C4.19973 6.9998 4.29973 7.4998 4.59973 7.9998C5.19973 9.1998 5.99978 10.1998 6.89978 11.0998C7.09978 11.2998 7.89973 12.0998 8.09973 12.2998C8.99973 13.1998 10.0997 13.9998 11.1997 14.5998C11.6997 14.8998 12.1998 14.9998 12.7998 15.0998C12.8998 15.0998 12.9997 15.0998 13.0997 15.0998C13.3997 15.0998 13.6998 14.9998 13.8998 14.8998L14.8998 15.8998C13.4998 17.0998 11.6998 17.6998 9.7998 17.6998C5.3998 17.6998 1.7998 14.0998 1.7998 9.6998C1.7998 5.2998 5.3998 1.6998 9.7998 1.6998C14.1998 1.6998 17.7998 5.2998 17.7998 9.6998C17.7998 10.0998 18.1997 10.4998 18.5997 10.4998C18.9997 10.4998 19.3998 10.0998 19.3998 9.6998C19.4998 4.5998 15.1998 0.299805 9.89978 0.299805Z" fill="#179981"/>
</svg>
