<svg width="48" height="49" viewBox="0 0 48 49" fill="none" xmlns="http://www.w3.org/2000/svg">
<circle cx="24" cy="24.4097" r="24" fill="#0088CC"/>
<circle cx="24" cy="24.4097" r="23.5" stroke="#428BF9" stroke-opacity="0.2"/>
<g clip-path="url(#clip0)">
<path d="M21.0629 26.3856L20.7651 30.5736C21.1911 30.5736 21.3756 30.3906 21.5969 30.1708L23.5941 28.2621L27.7326 31.2928C28.4916 31.7158 29.0264 31.4931 29.2311 30.5946L31.9476 17.8656L31.9484 17.8648C32.1891 16.7428 31.5426 16.3041 30.8031 16.5793L14.8356 22.6926C13.7459 23.1156 13.7624 23.7231 14.6504 23.9983L18.7326 25.2681L28.2149 19.3348C28.6611 19.0393 29.0669 19.2028 28.7331 19.4983L21.0629 26.3856Z" fill="white"/>
</g>
<defs>
<clipPath id="clip0">
<rect width="18" height="18" fill="white" transform="translate(14 15)"/>
</clipPath>
</defs>
</svg>
