<svg width="48" height="49" viewBox="0 0 48 49" fill="none" xmlns="http://www.w3.org/2000/svg">
<circle cx="24" cy="24.4097" r="24" fill="#56C1EE"/>
<g clip-path="url(#clip0)">
<path d="M20.6677 30.9501C21.9215 30.9906 23.171 30.7882 24.3424 30.3548C25.5137 29.9215 26.5831 29.266 27.4874 28.4272C28.3917 27.5883 29.1126 26.5831 29.6073 25.4709C30.1021 24.3587 30.3607 23.1621 30.3679 21.9518C30.9425 21.2658 31.3692 20.476 31.6229 19.6286C31.6418 19.5617 31.6403 19.4909 31.6184 19.4248C31.5966 19.3586 31.5555 19.3 31.4999 19.2559C31.4444 19.2118 31.3768 19.1842 31.3053 19.1763C31.2339 19.1684 31.1616 19.1806 31.0971 19.2114C30.7965 19.351 30.4581 19.3961 30.1295 19.3404C29.801 19.2846 29.4988 19.1308 29.2656 18.9006C28.968 18.5861 28.6079 18.3325 28.2068 18.1547C27.8056 17.977 27.3716 17.8787 26.9304 17.8657C26.4892 17.8528 26.0498 17.9254 25.6382 18.0792C25.2266 18.2331 24.8512 18.4651 24.5342 18.7615C24.1002 19.167 23.7824 19.6739 23.6115 20.2329C23.4406 20.7919 23.4226 21.3841 23.5591 21.9518C20.7185 22.1154 18.7683 20.8148 17.2081 19.0315C17.1613 18.9803 17.1 18.9433 17.0317 18.9252C16.9634 18.907 16.8912 18.9085 16.8237 18.9293C16.7563 18.9501 16.6966 18.9894 16.6519 19.0424C16.6072 19.0954 16.5795 19.1599 16.5722 19.2278C16.275 20.8184 16.4894 22.4586 17.1866 23.9282C17.8839 25.3978 19.0305 26.6264 20.4726 27.449C19.5057 28.5188 18.1478 29.187 16.6824 29.3141C16.6039 29.3266 16.5314 29.3625 16.4751 29.4168C16.4189 29.4711 16.3816 29.541 16.3685 29.6167C16.3554 29.6924 16.3672 29.7702 16.4022 29.8391C16.4372 29.9081 16.4937 29.9647 16.5637 30.0012C17.8386 30.6158 19.2425 30.9404 20.6677 30.9501Z" fill="white"/>
</g>
<defs>
<clipPath id="clip0">
<rect width="15.2727" height="15.2727" fill="white" transform="translate(16.3633 16.7734)"/>
</clipPath>
</defs>
</svg>
