<svg width="48" height="49" viewBox="0 0 48 49" fill="none" xmlns="http://www.w3.org/2000/svg">
<circle cx="24" cy="24.4097" r="24" fill="#BC2F2A"/>
<path d="M35.6015 18.5036C35.3355 17.5246 34.5561 16.7529 33.5676 16.4893C31.7617 16 24.5382 16 24.5382 16C24.5382 16 17.315 16 15.5091 16.4707C14.5396 16.7341 13.7412 17.5248 13.4752 18.5036C13 20.2917 13 24 13 24C13 24 13 27.727 13.4752 29.4964C13.7414 30.4752 14.5206 31.247 15.5093 31.5106C17.334 32 24.5385 32 24.5385 32C24.5385 32 31.7617 32 33.5676 31.5293C34.5562 31.2658 35.3355 30.4941 35.6017 29.5152C36.0768 27.727 36.0768 24.0188 36.0768 24.0188C36.0768 24.0188 36.0958 20.2917 35.6015 18.5036ZM22.2384 27.4258V20.5742L28.2451 24L22.2384 27.4258Z" fill="white"/>
</svg>
