<svg width="61" height="38" viewBox="0 0 61 38" fill="none" xmlns="http://www.w3.org/2000/svg">
<path fill-rule="evenodd" clip-rule="evenodd" d="M31.0781 23.0579C29.9921 22.9912 28.7213 22.8133 27.7277 22.5243C27.5429 22.4798 26.7573 22.1908 26.5724 22.1018C23.1065 20.5453 20.6804 17.1878 20.6804 13.2522C20.6804 7.87127 25.2323 3.51317 30.8008 3.51317C36.3463 3.51317 40.852 7.80456 40.9213 13.1188H44.5952C44.5258 5.8701 38.3565 0 30.8239 0C23.222 0 17.0527 5.95904 17.0527 13.2522C17.0527 18.2996 19.9872 22.6799 24.308 24.9257C25.0936 25.3259 26.2027 25.7262 26.5955 25.8373C27.8202 26.1931 29.3452 26.4154 30.6853 26.5266C31.1474 26.5489 32.7417 26.5711 33.2039 26.5711H61.0005V23.0579H33.2039C32.8804 23.1024 31.4016 23.0802 31.0781 23.0579ZM33.2039 17.5658C32.9497 17.5658 31.5402 17.5436 31.2861 17.5436C30.847 17.4991 30.2232 17.4547 29.8073 17.3657C29.3452 17.2545 28.9292 17.0989 28.7213 16.9877C27.358 16.2762 26.4338 14.8976 26.4338 13.2967C26.4338 10.9842 28.3747 9.09421 30.8008 9.09421C33.1577 9.09421 35.0755 10.8953 35.1448 13.1633H38.6569C38.5876 9.04974 35.0986 5.71445 30.8008 5.71445C26.4569 5.71445 22.9217 9.11644 22.9217 13.2967C22.9217 16.254 24.6777 18.7888 27.2425 20.0562C27.6353 20.2785 28.3747 20.5009 28.5827 20.5676C29.2989 20.7455 30.2694 20.8789 31.055 20.9233C31.3554 20.9456 32.7649 20.9678 33.0652 20.9678H61.0005V17.5658H33.2039Z" fill="white"/>
<path fill-rule="evenodd" clip-rule="evenodd" d="M13.1005 0H4.04297V3.5354H9.42668V26.5933H13.1005V0Z" fill="white"/>
<path fill-rule="evenodd" clip-rule="evenodd" d="M0 5.31445V8.71644H4.04356V26.5936H7.57879V5.31445H0Z" fill="white"/>
<path fill-rule="evenodd" clip-rule="evenodd" d="M49.4238 2.53535C49.4238 3.80275 50.5329 4.87004 51.85 4.87004C53.2132 4.87004 54.2761 3.82499 54.2761 2.53535C54.2761 1.26794 53.2132 0.245117 51.85 0.245117C50.5098 0.245117 49.4238 1.26794 49.4238 2.53535ZM49.8166 2.53535C49.8166 1.46805 50.764 0.623116 51.85 0.623116C52.9359 0.623116 53.8833 1.46805 53.8833 2.53535C53.8833 3.66934 52.9359 4.49205 51.85 4.49205C50.7409 4.49205 49.8166 3.66934 49.8166 2.53535ZM50.995 3.69158V1.40135H52.0579C52.289 1.40135 52.8435 1.46805 52.8435 2.06841C52.8435 2.22405 52.7973 2.4464 52.4276 2.57982C52.728 2.66876 52.7742 2.91334 52.7742 3.18017C52.8204 3.53593 52.7742 3.60264 52.8666 3.69158H52.4276C52.3352 3.64711 52.3352 3.55817 52.3352 3.18017C52.3352 2.98005 52.289 2.7577 51.8038 2.7577H51.4572V3.69158H50.995ZM51.4341 1.69041H51.8731C52.1735 1.69041 52.4045 1.77935 52.4045 2.06841C52.4045 2.22405 52.3352 2.42417 51.9655 2.42417H51.4341V1.69041Z" fill="white"/>
<path d="M6.53847 38.0002L2.95703 29.2617H5.96082L7.83241 35.0206L9.65779 29.2617H12.4305L8.98772 38.0002H6.53847Z" fill="white"/>
<path d="M15.735 29.2617H13.1934V37.9779H15.735V29.2617Z" fill="white"/>
<path d="M17.3984 38.0002V29.2617H22.8284V31.3518H19.9401V32.5748H22.5742V34.5092H19.9401V35.8878H22.8284V38.0002H17.3984Z" fill="white"/>
<path d="M25.532 38.0002V31.3518H23.5449V29.2617H30.0608V31.3518H28.0737V38.0002H25.532Z" fill="white"/>
<path d="M30.916 38.0002V29.2617H33.5732L36.9005 34.4203V29.2617H39.3497V38.0002H36.7156L33.3653 32.7526V38.0002H30.916Z" fill="white"/>
<path d="M40.1113 37.9994L43.3231 29.2832H46.3962L49.6079 37.9994H46.9045L46.4424 36.4874H43.2769L42.8147 37.9994H40.1113ZM44.8712 31.3511L43.8776 34.5752H45.8647L44.8712 31.3511Z" fill="white"/>
<path d="M50.0703 38.0002L51.3874 29.2617H53.929L55.5233 34.5982L57.1408 29.2617H59.6593L60.9764 38.0002H58.5502L57.8802 32.9305L56.3321 38.0002H54.7146L53.1896 32.9305L52.5196 38.0002H50.0703Z" fill="white"/>
</svg>
