<svg width="276" height="115" viewBox="0 0 276 115" fill="none" xmlns="http://www.w3.org/2000/svg">
<path d="M121.585 93.9439V0.543945H181.585V20.4439H145.185V38.144H173.785L174.385 55.5439H145.185V73.7439L183.985 73.4439L176.985 93.8439L121.585 93.9439Z" fill="#004294"/>
<path d="M214.885 0.543945H243.185L273.485 93.9439H248.685L243.585 77.7439H212.585L207.485 93.9439H183.885L214.885 0.543945ZM228.385 18.644C227.785 21.244 227.085 24.2439 226.085 27.8439C225.085 31.3439 224.085 35.1439 223.085 39.2439C221.985 43.2439 220.885 47.4439 219.685 51.7439C218.485 56.0439 218.485 56.1439 217.385 60.2439L239.185 60.3439C238.185 56.2439 238.085 56.0439 236.885 51.7439C235.685 47.4439 234.585 43.2439 233.485 39.2439C232.385 35.2439 231.485 31.4439 230.585 27.8439C229.685 24.2439 228.885 21.144 228.385 18.644Z" fill="#004294"/>
<path d="M36.4854 93.9439V0.0439453H37.6853C48.0853 0.0439453 58.5854 0.0439453 68.9854 0.0439453C94.8854 0.143945 115.885 21.2439 115.785 47.2439C115.685 71.0439 97.8853 90.944 74.2853 93.644C72.3853 93.8439 70.3854 93.9439 68.4854 93.9439C58.2854 93.9439 48.1854 93.9439 37.9854 93.9439H36.4854Z" fill="#004294"/>
<path d="M56.0851 76.3439C55.6851 76.5439 55.3851 77.0439 55.4851 77.5439L50.3851 80.4439V28.5439C50.9851 28.2439 51.2851 27.4439 50.9851 26.8439C50.6851 26.2439 49.8851 25.9439 49.2851 26.2439C48.6851 26.5439 48.3851 27.3439 48.6851 27.9439C48.7851 28.1439 48.9851 28.3439 49.2851 28.5439V82.4439L55.9851 78.5439C56.5851 78.9439 57.3851 78.7439 57.6851 78.2439C58.0851 77.6439 57.8851 76.8439 57.3851 76.5439C56.9851 76.1439 56.4851 76.1439 56.0851 76.3439Z" fill="white"/>
<path d="M102.685 49.4439C102.285 49.6439 101.985 50.144 102.085 50.644L64.9851 72.0439C64.3851 71.6439 63.5851 71.8439 63.2851 72.3439C62.8851 72.9439 63.085 73.7439 63.585 74.0439C64.185 74.4439 64.9851 74.2439 65.2851 73.7439C65.4851 73.5439 65.4851 73.2439 65.4851 72.9439L102.585 51.5439C103.185 51.9439 103.985 51.7439 104.285 51.2439C104.685 50.6439 104.485 49.8439 103.985 49.5439C103.685 49.2439 103.085 49.1439 102.685 49.4439Z" fill="white"/>
<path d="M108.285 45.644C107.885 45.444 107.385 45.444 106.985 45.644L88.2852 34.9439C88.2852 34.2439 87.7851 33.644 87.0851 33.644C86.3851 33.644 85.7852 34.1439 85.7852 34.8439C85.7852 35.5439 86.2852 36.144 86.9852 36.144C87.2852 36.144 87.4852 36.0439 87.7852 35.9439L106.485 46.7439C106.485 47.4439 106.985 48.0439 107.685 48.0439C108.385 48.0439 108.985 47.5439 108.985 46.8439C108.985 46.3439 108.685 45.944 108.285 45.644Z" fill="white"/>
<path d="M49.7855 20.2439C50.4855 20.2439 51.0855 19.6439 51.0855 19.0439C51.0855 18.5439 50.7855 18.1439 50.3855 17.9439V14.3439L72.6855 27.2439C72.6855 27.9439 73.1855 28.5439 73.8855 28.5439C74.5855 28.5439 75.1855 28.0439 75.1855 27.3439C75.1855 26.6439 74.6855 26.0439 73.9855 26.0439C73.6855 26.0439 73.4855 26.1439 73.1855 26.2439L49.1855 12.3439V17.8439C48.5855 18.1439 48.2855 18.9439 48.5855 19.5439C48.8855 20.0439 49.3855 20.2439 49.7855 20.2439Z" fill="white"/>
<path d="M54.7852 23.0439V71.5439L97.4852 47.3439L54.7852 23.0439Z" fill="white"/>
<path d="M25.8857 33.2439H2.38574V94.4439H25.8857V33.2439Z" fill="#E53819"/>
<path d="M14.6853 27.9439C22.2516 27.9439 28.3854 21.8102 28.3854 14.2439C28.3854 6.67764 22.2516 0.543945 14.6853 0.543945C7.11905 0.543945 0.985352 6.67764 0.985352 14.2439C0.985352 21.8102 7.11905 27.9439 14.6853 27.9439Z" fill="#E53819"/>
<path d="M1.88516 107.844C1.78516 105.344 3.78515 103.344 6.18515 103.244H6.28516C7.58516 103.244 8.78515 103.744 9.68515 104.644L8.98515 105.344C8.28515 104.544 7.28515 104.144 6.18515 104.144C4.28515 104.144 2.78516 105.744 2.78516 107.644V107.744C2.68516 109.644 4.18516 111.244 6.08516 111.344H6.18515C7.28515 111.344 8.28515 110.844 8.98515 110.044L9.68515 110.644C8.78515 111.644 7.48515 112.244 6.18515 112.144C3.78515 112.144 1.78516 110.244 1.78516 107.744C1.88516 107.944 1.88516 107.844 1.88516 107.844Z" fill="#040505"/>
<path d="M11.3848 108.544V103.444H12.3848V108.444C12.3848 110.344 13.3847 111.444 15.0847 111.444C16.6847 111.444 17.6848 110.444 17.6848 108.544V103.444H18.6848V108.444C18.6848 111.044 17.1848 112.344 14.9848 112.344C12.8848 112.344 11.3848 110.944 11.3848 108.544ZM14.5847 113.244H15.5847V114.544H14.5847V113.244Z" fill="#040505"/>
<path d="M20.685 107.844C20.585 105.344 22.585 103.344 24.985 103.244H25.085C26.385 103.244 27.585 103.744 28.485 104.644L27.785 105.344C27.085 104.544 26.085 104.144 24.985 104.144C23.085 104.144 21.585 105.744 21.585 107.644V107.744C21.485 109.644 22.985 111.244 24.885 111.344H24.985C26.085 111.344 27.085 110.844 27.785 110.044L28.485 110.644C27.585 111.644 26.285 112.244 24.985 112.144C22.585 112.144 20.585 110.244 20.585 107.744C20.685 107.944 20.685 107.844 20.685 107.844Z" fill="#040505"/>
<path d="M36.3848 104.344H33.3848V103.444H40.2848V104.344H37.2848V112.244H36.2848L36.3848 104.344Z" fill="#040505"/>
<path d="M42.1855 103.444H43.1855V107.344H48.2856V103.444H49.2856V112.244H48.2856V108.244H43.1855V112.244H42.1855V103.444Z" fill="#040505"/>
<path d="M51.585 108.544V103.444H52.585V108.444C52.585 110.344 53.585 111.444 55.285 111.444C56.885 111.444 57.885 110.444 57.885 108.544V103.444H58.785C58.985 103.444 59.085 103.244 59.085 103.044C59.085 102.644 58.985 102.344 58.785 102.044H59.785C59.885 102.344 59.985 102.744 59.985 103.144C59.985 103.844 59.585 104.244 58.785 104.444V108.544C58.785 111.144 57.285 112.444 55.085 112.444C53.085 112.344 51.585 110.944 51.585 108.544Z" fill="#040505"/>
<path d="M60.6852 107.844C60.5852 105.344 62.5852 103.344 65.0852 103.244H65.1852C66.0852 103.244 66.8852 103.444 67.6852 103.944C68.1852 103.844 68.4853 103.744 68.4853 103.444C68.4853 103.044 68.3852 102.744 68.1852 102.444H69.1852C69.2852 102.744 69.3852 103.144 69.3852 103.544C69.3852 104.144 69.0853 104.644 68.4853 104.744C69.1853 105.644 69.5852 106.644 69.5852 107.844C69.5852 110.344 67.5852 112.344 65.0852 112.344C62.5852 112.344 60.7852 110.244 60.6852 107.844ZM68.6852 107.844C68.7852 105.844 67.2852 104.244 65.2852 104.144H65.1852C63.2852 104.144 61.7852 105.744 61.7852 107.644V107.744C61.6852 109.644 63.1852 111.344 65.1852 111.344H65.2852C67.1852 111.344 68.6852 109.744 68.6852 107.844C68.6852 107.844 68.6852 107.944 68.6852 107.844Z" fill="#040505"/>
<path d="M71.7856 103.444H72.6855L78.1855 110.444V103.444H79.1855V112.244H78.3856L72.6855 105.044V112.244H71.6855L71.7856 103.444Z" fill="#040505"/>
<path d="M81.2856 107.844C81.1856 105.344 83.0855 103.344 85.5855 103.244H85.6855C86.8855 103.144 88.0856 103.644 88.9856 104.444L88.3856 105.244C87.6856 104.544 86.6855 104.244 85.6855 104.244C83.7855 104.244 82.2856 105.844 82.3856 107.744V107.844C82.2856 109.744 83.6856 111.344 85.4856 111.444C85.5856 111.444 85.6856 111.444 85.7856 111.444C86.6856 111.444 87.5856 111.144 88.2856 110.544V108.344H85.5855V107.444H89.1855V110.944C88.1855 111.844 86.9855 112.244 85.6855 112.244C83.2855 112.344 81.2855 110.444 81.1855 108.144C81.2855 108.044 81.2856 107.944 81.2856 107.844Z" fill="#040505"/>
<path d="M95.2852 103.444H96.2852L99.4852 108.244L102.685 103.444H103.685V112.244H102.685V105.144L99.4852 109.844L96.2852 105.144V112.244H95.2852V103.444Z" fill="#040505"/>
<path d="M109.485 103.344H110.385L114.385 112.244H113.285L112.285 109.944H107.485L106.485 112.244H105.485L109.485 103.344ZM111.885 108.944L109.885 104.444L107.885 108.944H111.885ZM109.385 113.244H110.385V114.544H109.385V113.244Z" fill="#040505"/>
<path d="M116.186 103.444H117.186V112.244H116.186V103.444Z" fill="#040505"/>
<path d="M123.885 108.244H122.985V107.344H123.885V103.444H126.985C129.385 103.244 131.485 105.144 131.685 107.544C131.685 107.644 131.685 107.744 131.685 107.844C131.685 110.244 129.685 112.244 127.285 112.244C127.185 112.244 127.085 112.244 126.985 112.244H123.885V108.244ZM126.985 111.244C128.885 111.344 130.485 109.944 130.585 108.144C130.585 108.044 130.585 107.944 130.585 107.844C130.585 105.944 129.085 104.444 127.185 104.344C127.085 104.344 126.985 104.344 126.885 104.344H124.785V107.344H127.385V108.244H124.785V111.344L126.985 111.244Z" fill="#040505"/>
<path d="M133.785 103.444H134.785V112.244H133.785V103.444Z" fill="#040505"/>
<path d="M137.385 103.444H143.785V104.344H138.385V107.344H143.185V108.244H138.385V111.344H143.785V112.244H137.385V103.444ZM140.185 100.944H141.085L142.385 102.544H141.585L140.685 101.744L139.785 102.544H138.985L140.185 100.944ZM139.985 113.244H140.985V114.544H139.985V113.244Z" fill="#040505"/>
<path d="M145.786 103.444H146.686L152.186 110.444V103.444H153.186V112.244H152.386L146.686 105.044V112.244H145.686V103.444H145.786Z" fill="#040505"/>
<path d="M161.785 104.344H158.785V103.444H165.685V104.344H162.685V112.244H161.685L161.785 104.344Z" fill="#040505"/>
<path d="M167.485 108.544V103.444H168.485V108.444C168.485 110.344 169.485 111.444 171.185 111.444C172.785 111.444 173.785 110.444 173.785 108.544V103.444H174.685C174.885 103.444 174.985 103.244 174.985 103.044C174.985 102.644 174.885 102.344 174.685 102.044H175.685C175.785 102.344 175.885 102.744 175.885 103.144C175.885 103.844 175.485 104.244 174.685 104.444V108.544C174.685 111.144 173.185 112.444 170.985 112.444C168.985 112.344 167.485 110.944 167.485 108.544ZM170.885 101.644C171.485 101.644 171.585 101.244 171.585 100.944C171.585 100.744 171.485 100.544 171.085 100.544C170.885 100.544 170.585 100.744 170.485 101.144L169.885 100.744C170.085 100.244 170.585 99.8439 171.085 99.8439C171.685 99.7439 172.185 100.244 172.285 100.844V100.944C172.285 101.444 171.885 101.944 171.385 102.044C171.385 102.244 171.385 102.344 171.385 102.544H170.885V101.644Z" fill="#040505"/>
<path d="M180.785 103.444H181.885L184.985 111.044L188.085 103.444H189.185L185.385 112.344H184.485L180.785 103.444Z" fill="#040505"/>
<path d="M192.585 103.344H193.485L197.485 112.244H196.385L195.385 109.944H190.585L189.585 112.244H188.585L192.585 103.344ZM195.085 108.944L193.085 104.444L191.085 108.944H195.085ZM191.685 101.144L192.685 100.644L193.885 102.444H193.085L191.685 101.144Z" fill="#040505"/>
<path d="M203.085 103.444H204.085V108.744L209.085 103.544H210.385L206.585 107.344L210.485 112.244H209.285L205.885 107.944L203.985 109.844V112.244H202.985V103.444H203.085Z" fill="#040505"/>
<path d="M212.186 103.444H213.186V112.244H212.186V103.444Z" fill="#040505"/>
<path d="M215.685 103.444H216.585L222.085 110.444V103.444H223.085V112.244H222.285L216.585 105.044V112.244H215.585V103.444H215.685Z" fill="#040505"/>
<path d="M225.686 103.444H226.686V107.344H231.786V103.444H232.786V112.244H231.786V108.244H226.686V112.244H225.686V103.444Z" fill="#040505"/>
<path d="M241.285 104.344H238.285V103.444H245.185V104.344H242.285V112.244H241.285V104.344Z" fill="#040505"/>
<path d="M247.085 103.444H253.485V104.344H248.085V107.344H252.885V108.244H248.085V111.344H253.485V112.244H247.085V103.444ZM249.885 100.944H250.785L252.085 102.544H251.285L250.385 101.744L249.485 102.544H248.685L249.885 100.944ZM252.785 99.5439L253.785 100.044L252.385 101.444H251.585L252.785 99.5439Z" fill="#040505"/>
<path d="M258.686 110.944L259.286 110.244C260.086 111.044 261.186 111.544 262.286 111.444C263.486 111.444 264.286 110.844 264.286 109.944C264.286 109.144 263.886 108.644 261.986 108.244C259.986 107.844 258.986 107.144 258.986 105.744C258.986 104.344 260.186 103.344 261.886 103.344C262.986 103.344 264.086 103.744 264.986 104.444L264.386 105.244C263.686 104.644 262.786 104.244 261.886 104.244C260.686 104.244 259.986 104.844 259.986 105.644C259.986 106.444 260.386 106.944 262.386 107.344C264.386 107.744 265.286 108.444 265.286 109.844C265.286 111.344 263.986 112.344 262.286 112.344C260.986 112.344 259.686 111.844 258.686 110.944Z" fill="#040505"/>
<path d="M266.885 107.844C266.885 105.344 268.785 103.344 271.285 103.244C273.785 103.244 275.785 105.144 275.885 107.644V107.744C275.885 110.244 273.985 112.244 271.485 112.344C268.985 112.344 266.985 110.444 266.885 107.944V107.844ZM274.885 107.844C274.985 105.844 273.485 104.244 271.485 104.144H271.385C269.485 104.144 267.985 105.744 267.985 107.644V107.744C267.885 109.644 269.385 111.344 271.385 111.344H271.485C273.385 111.344 274.885 109.744 274.885 107.844C274.885 107.844 274.885 107.944 274.885 107.844ZM270.985 100.844H271.885L273.185 102.444H272.285L271.385 101.644L270.485 102.444H269.685L270.985 100.844ZM273.885 99.3439L274.885 99.8439L273.485 101.244H272.685L273.885 99.3439Z" fill="#040505"/>
</svg>
