<svg width="271" height="57" viewBox="0 0 271 57" fill="none" xmlns="http://www.w3.org/2000/svg">
<path d="M111.418 0.550293H31.4182C29.2182 0.550293 27.4182 2.35029 27.4182 4.55029C27.4182 6.75029 29.2182 8.55029 31.4182 8.55029H49.5182C51.7182 8.55029 53.5182 10.3503 53.5182 12.5503C53.5182 14.7503 51.7182 16.5503 49.5182 16.5503H4.11816C1.91816 16.5503 0.118164 18.3503 0.118164 20.5503C0.118164 22.7503 1.91816 24.5503 4.11816 24.5503H42.4182C44.6182 24.5503 46.4182 26.3503 46.4182 28.5503C46.4182 30.7503 44.6182 32.5503 42.4182 32.5503H24.4182C22.2182 32.5503 20.4182 34.3503 20.4182 36.5503C20.4182 38.7503 22.2182 40.5503 24.4182 40.5503H46.6182C48.8182 40.5503 50.6182 42.3503 50.6182 44.5503C50.6182 46.7503 48.8182 48.5503 46.6182 48.5503H42.1182C39.9182 48.5503 38.1182 50.3503 38.1182 52.5503C38.1182 54.7503 39.9182 56.5503 42.1182 56.5503H111.818C127.418 56.5503 140.018 43.9503 140.018 28.3503C140.018 28.2503 140.018 28.1503 140.018 27.9503C139.818 12.8503 126.918 0.550293 111.418 0.550293Z" fill="url(#paint0_linear)"/>
<path d="M30.918 48.8503H19.918C17.718 48.8503 15.918 50.6503 15.918 52.8503C15.918 55.0503 17.718 56.8503 19.918 56.8503H30.918C33.118 56.8503 34.918 55.0503 34.918 52.8503C34.918 50.6503 33.118 48.8503 30.918 48.8503Z" fill="url(#paint1_linear)"/>
<path d="M16.7178 8.65039H19.8178C22.0178 8.65039 23.8178 6.85039 23.8178 4.65039C23.8178 2.45039 22.0178 0.650391 19.8178 0.650391H16.7178C14.5178 0.650391 12.7178 2.45039 12.7178 4.65039C12.6178 6.85039 14.4178 8.65039 16.7178 8.65039Z" fill="url(#paint2_linear)"/>
<path d="M17.8184 36.8503C17.8184 34.6503 16.0184 32.8503 13.8184 32.8503C11.6184 32.8503 9.81836 34.6503 9.81836 36.8503C9.81836 39.0503 11.6184 40.8503 13.8184 40.8503C16.0184 40.8503 17.8184 39.0503 17.8184 36.8503Z" fill="url(#paint3_linear)"/>
<path d="M153.238 39.7615C150.438 37.0615 148.838 33.2615 148.938 29.3615V29.2615C148.838 25.2615 150.438 21.4615 153.238 18.7615C156.138 15.8615 160.138 14.3615 164.138 14.4615C168.238 14.3615 172.138 15.8615 175.038 18.7615C177.838 21.4615 179.338 25.2615 179.338 29.1615V29.2615C179.438 33.1615 177.838 36.9615 175.038 39.7615C172.138 42.6615 168.138 44.1615 164.038 44.0615C160.038 44.1615 156.138 42.5615 153.238 39.7615ZM170.438 35.6615C172.038 33.9615 172.838 31.6615 172.838 29.3615V29.2615C172.938 26.9615 172.038 24.6615 170.438 22.9615C168.838 21.2615 166.538 20.2615 164.138 20.2615C161.738 20.1615 159.538 21.1615 157.938 22.8615C156.338 24.5615 155.438 26.8615 155.538 29.1615V29.2615C155.438 31.6615 156.338 33.8615 158.038 35.5615C159.638 37.2615 161.938 38.2615 164.238 38.2615C166.538 38.2615 168.838 37.3615 170.438 35.6615Z" fill="#313131"/>
<path d="M182.038 24.4614C182.038 23.6614 182.338 22.8614 182.938 22.2614C183.538 21.6614 184.338 21.3614 185.138 21.3614C185.938 21.3614 186.738 21.6614 187.338 22.2614C187.938 22.8614 188.238 23.6614 188.238 24.4614V24.6614C190.038 22.3614 192.238 21.1614 194.638 21.1614C196.738 21.0614 198.738 21.8614 200.138 23.3614C201.538 25.0614 202.238 27.1614 202.138 29.3614V40.6614C202.138 41.4614 201.838 42.2614 201.238 42.8614C200.638 43.4614 199.838 43.7614 199.038 43.7614C198.238 43.7614 197.438 43.4614 196.838 42.8614C196.238 42.2614 195.938 41.4614 195.938 40.6614V31.2614C195.938 28.2614 194.638 26.7614 192.138 26.7614C189.538 26.7614 188.238 28.2614 188.238 31.2614V40.6614C188.238 41.4614 187.938 42.2614 187.338 42.8614C186.738 43.4614 185.938 43.7614 185.138 43.7614C184.338 43.7614 183.538 43.4614 182.938 42.8614C182.338 42.2614 182.038 41.4614 182.038 40.6614V24.4614Z" fill="#313131"/>
<path d="M205.638 16.5614C205.638 15.7614 205.938 14.9614 206.538 14.3614C207.138 13.7614 207.938 13.4614 208.738 13.4614C209.538 13.4614 210.338 13.7614 210.938 14.3614C211.538 14.9614 211.838 15.7614 211.838 16.5614V40.6614C211.838 41.4614 211.538 42.2614 210.938 42.8614C210.338 43.4614 209.538 43.7614 208.738 43.7614C207.938 43.7614 207.138 43.4614 206.538 42.8614C205.938 42.2614 205.638 41.4614 205.638 40.6614V16.5614Z" fill="#313131"/>
<path d="M215.738 16.3614C215.738 15.5614 216.138 14.7614 216.738 14.2614C217.538 13.7614 218.338 13.4614 219.238 13.4614C220.138 13.4614 221.038 13.6614 221.738 14.2614C222.338 14.7614 222.738 15.5614 222.738 16.3614V16.4614C222.738 17.2614 222.438 18.0614 221.738 18.5614C221.038 19.1614 220.138 19.4614 219.238 19.4614C218.338 19.4614 217.438 19.1614 216.738 18.6614C216.138 18.1614 215.738 17.3614 215.738 16.3614ZM216.138 24.4614C216.138 23.6614 216.438 22.8614 217.038 22.2614C217.638 21.6614 218.438 21.3614 219.238 21.3614C220.038 21.3614 220.838 21.6614 221.438 22.2614C222.038 22.8614 222.338 23.6614 222.338 24.4614V40.6614C222.338 41.4614 222.038 42.2614 221.438 42.8614C220.838 43.4614 220.038 43.7614 219.238 43.7614C218.438 43.7614 217.638 43.4614 217.038 42.8614C216.438 42.2614 216.138 41.4614 216.138 40.6614V24.4614Z" fill="#313131"/>
<path d="M226.338 24.4614C226.338 23.6614 226.638 22.8614 227.238 22.2614C227.838 21.6614 228.638 21.3614 229.438 21.3614C230.238 21.3614 231.038 21.6614 231.638 22.2614C232.238 22.8614 232.538 23.6614 232.538 24.4614V24.6614C234.338 22.3614 236.538 21.1614 238.938 21.1614C241.038 21.0614 243.038 21.8614 244.438 23.3614C245.838 25.0614 246.538 27.1614 246.438 29.3614V40.6614C246.438 41.4614 246.138 42.2614 245.538 42.8614C244.938 43.4614 244.138 43.7614 243.338 43.7614C242.538 43.7614 241.738 43.4614 241.138 42.8614C240.538 42.2614 240.238 41.4614 240.238 40.6614V31.2614C240.238 28.2614 238.938 26.7614 236.438 26.7614C233.838 26.7614 232.538 28.2614 232.538 31.2614V40.6614C232.538 41.4614 232.238 42.2614 231.638 42.8614C231.038 43.4614 230.238 43.7614 229.438 43.7614C228.638 43.7614 227.838 43.4614 227.238 42.8614C226.638 42.2614 226.338 41.4614 226.338 40.6614V24.4614Z" fill="#313131"/>
<path d="M260.838 44.0614C257.838 44.1614 254.838 43.0614 252.638 40.9614C250.438 38.7614 249.238 35.8614 249.338 32.7614V32.6614C249.238 29.6614 250.338 26.7614 252.338 24.5614C254.338 22.3614 257.138 21.1614 260.138 21.1614C263.238 21.0614 266.138 22.3614 268.138 24.7614C269.738 26.7614 270.638 29.1614 270.638 31.7614C270.638 32.5614 270.338 33.3614 269.838 33.9614C269.238 34.4614 268.538 34.7614 267.738 34.7614H255.438C255.738 37.3614 258.138 39.2614 260.838 39.0614C262.438 39.0614 263.938 38.5614 265.238 37.5614C265.638 37.2614 266.238 37.0614 266.738 37.0614C267.338 37.0614 268.038 37.2614 268.438 37.7614C268.938 38.2614 269.138 38.8614 269.138 39.5614C269.138 40.2614 268.838 40.9614 268.338 41.3614C266.338 43.1614 263.538 44.0614 260.838 44.0614ZM264.838 30.8614C264.438 27.7614 262.838 26.1614 260.238 26.1614C257.638 26.1614 256.038 27.7614 255.538 30.8614H264.838Z" fill="#313131"/>
<path d="M89.15 43.1804C93.15 39.5804 95.35 34.3804 95.25 29.0804V28.2803H70.05C70.05 31.9803 73.05 34.9803 76.75 34.9803H86.15C85.05 37.0803 83.4499 38.7803 81.3499 39.9803C79.4499 41.1803 77.1499 41.8804 74.8499 41.8804C72.9499 41.8804 71.1499 41.4803 69.4499 40.7803C67.7499 40.0803 66.1499 38.9804 64.8499 37.5804C64.2499 36.9804 63.75 36.3804 63.25 35.6804C62.75 34.9804 62.35 34.1803 62.05 33.4803C61.75 32.6803 61.4499 31.8804 61.3499 31.0804C61.1499 30.2804 61.15 29.4804 61.15 28.6804C61.15 26.8804 61.5499 25.0804 62.3499 23.3804C63.1499 21.6804 64.25 20.1803 65.55 18.9803C66.75 17.8803 68.15 17.0803 69.75 16.4803C71.25 15.8803 72.85 15.5804 74.55 15.5804C76.55 15.5804 78.45 16.0803 80.25 16.9803C82.05 17.8803 83.55 19.0804 84.65 20.6804H93.15C91.65 16.9804 89.05 13.8804 85.65 11.8804C82.35 9.78036 78.4499 8.58035 74.4499 8.68035C69.0499 8.58035 63.8499 10.7804 59.9499 14.5804C56.0499 18.2804 53.8499 23.4804 53.8499 28.8804C53.7499 34.2804 55.9499 39.4804 59.9499 43.1804C63.8499 46.9804 69.0499 48.9804 74.4499 48.8804C80.1499 48.9804 85.35 46.9804 89.15 43.1804Z" fill="white"/>
<path d="M108.75 8.58032C103.35 8.58032 98.1496 10.7803 94.3496 14.5803C97.2496 18.6803 98.8496 23.5803 98.8496 28.6803C98.8496 33.7803 97.2496 38.6803 94.3496 42.7803C98.1496 46.6803 103.35 48.7803 108.75 48.7803C119.85 48.7803 128.85 39.7803 128.85 28.6803C128.85 17.5803 119.85 8.58032 108.75 8.58032ZM122.45 30.5803L100.55 43.2803C103.05 38.8803 104.35 33.8803 104.35 28.7803C104.35 23.6803 103.05 18.6803 100.55 14.2803L122.45 26.9803C123.45 27.5803 123.85 28.8803 123.25 29.9803C123.05 30.1803 122.75 30.4803 122.45 30.5803Z" fill="white"/>
<defs>
<linearGradient id="paint0_linear" x1="11.0527" y1="28.7011" x2="126.934" y2="28.7011" gradientUnits="userSpaceOnUse">
<stop stop-color="#8CCA37"/>
<stop offset="0.5" stop-color="#45B062"/>
<stop offset="1" stop-color="#179981"/>
</linearGradient>
<linearGradient id="paint1_linear" x1="11.0509" y1="52.8996" x2="126.854" y2="52.8996" gradientUnits="userSpaceOnUse">
<stop stop-color="#8CCA37"/>
<stop offset="0.5" stop-color="#45B062"/>
<stop offset="1" stop-color="#179981"/>
</linearGradient>
<linearGradient id="paint2_linear" x1="11.0408" y1="4.56179" x2="126.864" y2="4.56179" gradientUnits="userSpaceOnUse">
<stop stop-color="#8CCA37"/>
<stop offset="0.5" stop-color="#45B062"/>
<stop offset="1" stop-color="#179981"/>
</linearGradient>
<linearGradient id="paint3_linear" x1="11.0413" y1="36.7883" x2="126.868" y2="36.7883" gradientUnits="userSpaceOnUse">
<stop stop-color="#8CCA37"/>
<stop offset="0.5" stop-color="#45B062"/>
<stop offset="1" stop-color="#179981"/>
</linearGradient>
</defs>
</svg>
