<svg width="267" height="56" viewBox="0 0 267 56" fill="none" xmlns="http://www.w3.org/2000/svg">
<path d="M5.11596 41.1866L2.85313 48.4527H0L7.37878 25.2571H10.7238L18.1026 48.4527H15.1511L12.7899 41.1866H5.11596ZM12.1996 38.8577L10.0351 32.1506C9.54323 30.6601 9.24808 29.2627 8.95292 27.9586C8.65777 29.3559 8.26424 30.7532 7.8707 32.1506L5.70626 38.8577H12.1996Z" fill="white"/>
<path d="M31.8754 47.7993C31.0883 48.172 29.5142 48.7309 27.4481 48.7309C22.7257 48.7309 19.6758 45.2842 19.6758 40.2538C19.6758 35.1303 22.9224 31.4041 28.0384 31.4041C29.7109 31.4041 31.1867 31.8698 31.9738 32.2424L31.2851 34.5713C30.5964 34.1987 29.5142 33.8261 28.0384 33.8261C24.4966 33.8261 22.5289 36.6207 22.5289 40.0675C22.5289 43.8868 24.8901 46.3089 27.94 46.3089C29.5142 46.3089 30.5964 45.8431 31.3835 45.4705L31.8754 47.7993Z" fill="white"/>
<path d="M46.0433 47.7993C45.2563 48.172 43.6821 48.7309 41.6161 48.7309C36.8936 48.7309 33.8438 45.2842 33.8438 40.2538C33.8438 35.1303 37.0904 31.4041 42.2064 31.4041C43.8789 31.4041 45.3547 31.8698 46.1417 32.2424L45.453 34.5713C44.7643 34.1987 43.6821 33.8261 42.2064 33.8261C38.6646 33.8261 36.6969 36.6207 36.6969 40.0675C36.6969 43.8868 39.0581 46.3089 42.108 46.3089C43.6821 46.3089 44.7643 45.8431 45.5514 45.4705L46.0433 47.7993Z" fill="white"/>
<path d="M63.2612 39.9743C63.2612 46.1226 59.3259 48.8241 55.4889 48.8241C51.2584 48.8241 48.0117 45.5636 48.0117 40.2538C48.0117 34.6645 51.4551 31.4041 55.6857 31.4041C60.2113 31.4041 63.2612 34.9439 63.2612 39.9743ZM50.9632 40.1606C50.9632 43.7937 52.9309 46.5883 55.6857 46.5883C58.342 46.5883 60.4081 43.8868 60.4081 40.1606C60.4081 37.366 59.1291 33.7329 55.784 33.7329C52.439 33.7329 50.9632 36.9934 50.9632 40.1606Z" fill="white"/>
<path d="M79.8865 43.8874C79.8865 45.5642 79.8866 47.1478 79.9849 48.452H77.5253L77.3286 45.7505H77.2302C76.4431 47.0547 74.869 48.8246 72.1142 48.8246C69.6546 48.8246 66.7031 47.4273 66.7031 41.5585V31.7772H69.5562V40.9996C69.5562 44.1669 70.4417 46.3094 72.9997 46.3094C74.869 46.3094 76.2464 44.9121 76.7383 43.5148C76.935 43.049 77.0334 42.4901 77.0334 41.9311V31.6841H79.8865V43.8874Z" fill="white"/>
<path d="M84.5124 36.3416C84.5124 34.6648 84.5124 33.1744 84.4141 31.8702H86.8737L87.0704 34.6648H87.1688C87.9559 33.0812 89.7268 31.4976 92.2848 31.4976C94.4492 31.4976 97.7943 32.8949 97.7943 38.5773V48.4518H94.9411V38.8568C94.9411 36.1553 94.0557 33.9196 91.3009 33.9196C89.4316 33.9196 87.9559 35.3169 87.464 36.9937C87.3656 37.3663 87.2672 37.9253 87.2672 38.391V48.4518H84.4141V36.3416H84.5124Z" fill="white"/>
<path d="M105.664 27.0261V31.777H109.698V34.1059H105.664V43.0488C105.664 45.0982 106.254 46.3092 107.828 46.3092C108.616 46.3092 109.107 46.2161 109.501 46.1229L109.599 48.3586C109.009 48.6381 108.222 48.7313 107.14 48.7313C105.861 48.7313 104.779 48.2655 104.09 47.4271C103.303 46.4955 103.008 45.0982 103.008 43.1419V34.1059H100.646V31.777H103.008V27.7714L105.664 27.0261Z" fill="white"/>
<path d="M115.994 27.1202C115.994 28.1449 115.306 28.9833 114.223 28.9833C113.239 28.9833 112.551 28.1449 112.551 27.1202C112.551 26.0955 113.338 25.2571 114.322 25.2571C115.306 25.2571 115.994 26.0955 115.994 27.1202ZM112.846 48.4527V31.7779H115.699V48.4527H112.846Z" fill="white"/>
<path d="M120.423 36.3416C120.423 34.6648 120.423 33.1744 120.324 31.8702H122.784L122.981 34.6648H123.079C123.866 33.0812 125.637 31.4976 128.195 31.4976C130.359 31.4976 133.704 32.8949 133.704 38.5773V48.4518H130.851V38.8568C130.851 36.1553 129.966 33.9196 127.211 33.9196C125.342 33.9196 123.866 35.3169 123.374 36.9937C123.276 37.3663 123.177 37.9253 123.177 38.391V48.4518H120.324V36.3416H120.423Z" fill="white"/>
<path d="M151.61 31.7767C151.511 32.9877 151.511 34.2919 151.511 36.3413V46.0294C151.511 49.8488 150.823 52.1776 149.248 53.6681C147.773 55.1586 145.51 55.6244 143.641 55.6244C141.771 55.6244 139.705 55.1586 138.426 54.227L139.115 51.8982C140.099 52.5503 141.771 53.2023 143.641 53.2023C146.494 53.2023 148.658 51.6187 148.658 47.4267V45.5636H148.56C147.674 47.1473 146.002 48.3583 143.641 48.3583C139.804 48.3583 137.049 44.8184 137.049 40.2538C137.049 34.6645 140.492 31.4041 144.034 31.4041C146.69 31.4041 148.166 32.8945 148.855 34.2919H148.953L149.052 31.7767H151.61ZM148.658 38.3907C148.658 37.8318 148.658 37.4591 148.461 36.9934C147.969 35.2234 146.592 33.8261 144.526 33.8261C141.87 33.8261 139.902 36.2481 139.902 40.0675C139.902 43.3279 141.476 46.0294 144.526 46.0294C146.297 46.0294 147.871 44.8184 148.461 42.9553C148.658 42.3963 148.658 41.8374 148.658 41.3716V38.3907Z" fill="white"/>
<path d="M155.84 44.8187C157.119 45.6571 158.89 46.3092 160.858 46.3092C163.711 46.3092 165.384 44.7255 165.384 42.3967C165.384 40.2541 164.203 38.9499 161.35 37.8321C157.808 36.5279 155.644 34.5716 155.644 31.3112C155.644 27.6782 158.398 25.0698 162.629 25.0698C164.892 25.0698 166.466 25.6288 167.45 26.1877L166.663 28.6097C165.974 28.2371 164.498 27.4919 162.53 27.4919C159.579 27.4919 158.497 29.355 158.497 30.9386C158.497 33.0812 159.776 34.199 162.826 35.41C166.466 36.9005 168.335 38.8568 168.335 42.2104C168.335 45.7502 165.875 48.9175 160.759 48.9175C158.693 48.9175 156.431 48.2654 155.25 47.427L155.84 44.8187Z" fill="#FFDD00"/>
<path d="M184.961 43.8874C184.961 45.5642 184.961 47.1478 185.059 48.452H182.6L182.403 45.7505H182.304C181.517 47.0547 179.943 48.8246 177.188 48.8246C174.729 48.8246 171.777 47.4273 171.777 41.5585V31.7772H174.63V40.9996C174.63 44.1669 175.516 46.3094 178.074 46.3094C179.943 46.3094 181.321 44.9121 181.812 43.5148C182.009 43.049 182.108 42.4901 182.108 41.9311V31.6841H184.961V43.8874Z" fill="#FFDD00"/>
<path d="M192.832 27.1202C192.832 28.1449 192.143 28.9833 191.061 28.9833C190.077 28.9833 189.389 28.1449 189.389 27.1202C189.389 26.0955 190.176 25.2571 191.16 25.2571C192.143 25.2571 192.832 26.0955 192.832 27.1202ZM189.684 48.4527V31.7779H192.537V48.4527H189.684Z" fill="#FFDD00"/>
<path d="M200.604 27.0261V31.777H204.637V34.1059H200.604V43.0488C200.604 45.0982 201.194 46.3092 202.768 46.3092C203.555 46.3092 204.047 46.2161 204.441 46.1229L204.539 48.3586C203.949 48.6381 203.162 48.7313 202.079 48.7313C200.8 48.7313 199.718 48.2655 199.029 47.4271C198.242 46.4955 197.947 45.0982 197.947 43.1419V34.1059H195.586V31.777H197.947V27.7714L200.604 27.0261Z" fill="#FFDD00"/>
<path d="M209.263 40.7199C209.361 44.8187 211.722 46.4955 214.575 46.4955C216.641 46.4955 217.822 46.1229 218.904 45.6571L219.396 47.7997C218.412 48.2655 216.74 48.8244 214.182 48.8244C209.361 48.8244 206.508 45.4708 206.508 40.4404C206.508 35.4101 209.263 31.4976 213.788 31.4976C218.904 31.4976 220.183 36.2485 220.183 39.3226C220.183 39.9747 220.085 40.4404 220.085 40.7199H209.263ZM217.527 38.4842C217.527 36.5279 216.74 33.547 213.591 33.547C210.738 33.547 209.459 36.3416 209.263 38.4842H217.527Z" fill="#FFDD00"/>
<path d="M227.661 19.6667V18.2694C227.661 17.9899 227.365 17.7104 227.07 17.7104H221.069C220.774 17.7104 220.479 17.9899 220.479 18.2694V19.6667C220.479 19.9462 220.774 20.2256 221.069 20.2256H227.07C227.365 20.2256 227.661 19.9462 227.661 19.6667Z" fill="#FFDD00"/>
<path d="M259.143 11.0962C259.143 11.0962 258.946 2.9917 248.911 0.383354C248.911 0.383354 240.155 -2.4113 233.76 7.09052H227.857C227.857 7.09052 226.676 6.99736 226.578 8.48784C226.578 8.48784 226.283 9.88517 228.152 9.79201C230.022 9.69886 239.663 9.79201 239.663 9.79201C239.663 9.79201 240.647 9.79201 240.647 11.003C240.647 11.003 240.942 12.1209 239.761 12.3072C238.581 12.4935 224.118 12.3072 224.118 12.3072C224.118 12.3072 222.643 12.3072 222.643 13.7045C222.643 13.7045 222.249 15.195 224.02 15.195C225.791 15.195 243.5 15.195 243.5 15.195C243.5 15.195 244.976 15.0087 245.074 16.3129C245.074 16.3129 245.566 17.8033 243.894 17.7102H230.415C230.415 17.7102 229.038 17.7102 229.038 19.0144C229.038 19.0144 228.841 20.5048 230.415 20.5048H245.861C245.861 20.5048 246.944 20.3185 247.239 21.2501C248.419 21.6227 249.698 21.809 250.977 21.3432C252.65 20.6912 252.945 18.7349 251.568 17.617C250.78 16.965 249.797 16.6855 248.813 16.3129C247.829 15.9402 246.944 15.3813 246.255 14.6361C245.763 13.984 245.566 13.3319 245.566 12.4935H243.008C242.713 12.4935 242.418 12.214 242.418 11.9346V10.4441C242.418 10.1646 242.713 9.88517 243.008 9.88517H246.747C246.845 9.88517 246.944 9.88517 247.042 9.97832C247.14 9.88517 247.239 9.79201 247.337 9.79201C247.829 9.41939 248.419 9.23308 249.108 9.13993C249.305 9.13993 249.403 9.04677 249.305 8.86046C249.305 8.20838 249.305 7.55629 249.305 6.90421C249.305 6.81105 249.305 6.81105 249.305 6.7179C249.797 6.7179 250.19 6.7179 250.682 6.7179C250.682 7.09052 250.682 7.36998 250.682 7.7426C250.682 8.02207 250.682 8.30153 250.682 8.67415C250.682 8.95362 250.78 8.95362 250.977 8.95362C251.863 8.95362 252.748 9.23308 253.535 9.6057C253.732 9.69886 253.83 9.79201 253.732 9.97832C253.535 10.3509 253.437 10.8167 253.24 11.1893C252.748 11.003 252.355 10.8167 251.863 10.7236C250.78 10.4441 249.797 10.3509 248.714 10.8167C247.927 11.0962 247.534 11.7483 247.534 12.4935C247.534 13.2388 247.829 13.7977 248.518 14.1703C249.206 14.5429 249.993 14.9155 250.78 15.2882C251.371 15.5676 251.863 15.7539 252.453 16.1266C253.732 16.8718 254.421 17.9897 254.421 19.387C254.421 20.4117 254.027 21.2501 253.437 21.9022C252.748 22.5543 251.961 23.02 250.977 23.2063C250.682 23.2995 250.584 23.3927 250.682 23.6721C250.682 24.3242 250.682 24.9763 250.682 25.7215C250.289 25.7215 249.895 25.7215 249.403 25.7215C249.206 25.7215 249.108 25.7215 249.108 25.4421C249.108 24.79 249.108 24.231 249.108 23.579C249.108 23.4858 249.108 23.4858 249.108 23.3927C248.518 23.2995 247.927 23.2995 247.435 23.1132C247.239 23.1132 247.042 23.02 246.845 22.9269C246.747 23.02 246.55 23.02 246.452 23.02C245.96 23.1132 229.628 23.1132 225.201 23.1132C223.823 23.1132 223.135 24.6037 224.02 25.5352H225.201H247.927L242.418 33.4534L254.421 25.5352H259.93C259.93 25.5352 265.341 24.9763 266.719 19.4801C268.391 14.0771 262.193 10.4441 259.143 11.0962Z" fill="#FFDD00"/>
</svg>
