<svg width="239" height="51" viewBox="0 0 239 51" fill="none" xmlns="http://www.w3.org/2000/svg">
<path d="M98.4235 50.684H37.0234C35.0234 50.684 33.4235 49.084 33.4235 47.084C33.4235 45.084 35.0234 43.584 37.0234 43.584H41.0234C43.0234 43.584 44.6235 41.984 44.6235 40.084C44.6235 38.084 43.0234 36.484 41.0234 36.484H21.4235C19.4235 36.484 17.8235 34.884 17.8235 32.984C17.8235 31.084 19.4235 29.384 21.4235 29.384H37.2235C39.2235 29.384 40.8235 27.784 40.8235 25.884C40.8235 23.984 39.2235 22.384 37.2235 22.384H3.52344C1.52344 22.384 0.0234375 20.784 0.0234375 18.784C0.0234375 16.784 1.62344 15.284 3.52344 15.284H43.5234C45.5234 15.284 47.1235 13.684 47.1235 11.684C47.1235 9.68396 45.5234 8.18396 43.5234 8.18396H27.6235C25.6235 8.18396 24.1235 6.58396 24.1235 4.68396C24.1235 2.68396 25.7235 1.08398 27.6235 1.08398H98.1235C104.724 1.08398 111.023 3.68396 115.823 8.18396C123.123 15.184 125.423 25.984 121.523 35.384C117.623 44.584 108.523 50.684 98.4235 50.684ZM95.7235 8.08398C90.9235 8.08398 86.4234 9.98397 83.0234 13.384C88.3234 20.784 88.3234 30.784 83.0234 38.184C89.9234 45.184 101.124 45.284 108.124 38.484C115.124 31.584 115.223 20.384 108.423 13.384C105.023 9.98397 100.524 8.08398 95.7235 8.08398ZM65.7235 8.08398C60.9235 7.98398 56.3234 9.88397 53.0234 13.284C49.5234 16.584 47.6235 21.184 47.7235 25.884C47.6235 30.684 49.6235 35.184 53.1235 38.484C60.2235 45.184 71.4234 45.184 78.5234 38.584C82.0234 35.384 83.9235 30.884 83.9235 26.184V25.484H61.7235C61.7235 28.784 64.4235 31.384 67.6235 31.384H75.9235C74.9235 33.184 73.5235 34.784 71.7235 35.784C70.0235 36.884 68.0234 37.484 66.0234 37.484C62.7234 37.484 59.5235 36.084 57.2235 33.684C56.7235 33.184 56.2235 32.584 55.8235 31.984C55.4235 31.384 55.0235 30.684 54.8235 29.984C54.5235 29.284 54.3235 28.584 54.2235 27.884C53.8235 25.584 54.1235 23.184 55.1235 21.084C55.8235 19.584 56.7235 18.284 57.9235 17.184C59.0235 16.284 60.2235 15.484 61.6235 14.984C62.9235 14.484 64.4235 14.184 65.8235 14.184C67.5235 14.184 69.3235 14.584 70.8235 15.384C72.4235 16.184 73.7235 17.284 74.7235 18.684H82.2235C80.9235 15.484 78.6235 12.684 75.6235 10.884C72.6235 9.08397 69.2235 8.08398 65.7235 8.08398ZM88.4235 38.684C92.9235 30.784 92.9235 20.984 88.4235 13.084L107.724 24.284C108.624 24.784 108.923 25.984 108.423 26.884C108.223 27.184 108.024 27.384 107.724 27.584L88.4235 38.684Z" fill="white"/>
<path d="M17.4234 43.584H27.1235C29.1235 43.584 30.6235 45.184 30.6235 47.084C30.6235 49.084 29.0235 50.584 27.1235 50.584H17.4234C15.4234 50.584 13.9234 48.984 13.9234 47.084C13.8234 45.184 15.4234 43.584 17.4234 43.584Z" fill="white"/>
<path d="M14.6236 0.983887H17.3235C19.3235 0.983887 20.8235 2.58389 20.8235 4.48389C20.8235 6.48389 19.2235 7.98389 17.3235 7.98389H14.6236C12.6236 7.98389 11.1236 6.38389 11.1236 4.48389C11.0236 2.58389 12.6236 0.983887 14.6236 0.983887Z" fill="white"/>
<path d="M12.123 36.4839C14.056 36.4839 15.623 34.9169 15.623 32.9839C15.623 31.0509 14.056 29.4839 12.123 29.4839C10.1901 29.4839 8.62305 31.0509 8.62305 32.9839C8.62305 34.9169 10.1901 36.4839 12.123 36.4839Z" fill="white"/>
<path d="M134.904 35.5739C132.404 33.1739 131.004 29.7739 131.104 26.3739V26.2739C131.004 22.7739 132.404 19.4739 134.904 17.0739C137.404 14.5739 140.904 13.1739 144.504 13.2739C148.104 13.1739 151.604 14.4739 154.104 16.9739C156.604 19.3739 157.904 22.6739 157.804 26.1739V26.2739C157.904 29.7739 156.504 33.0739 154.004 35.4739C151.404 37.9739 148.004 39.3739 144.304 39.2739C140.904 39.3739 137.404 38.0739 134.904 35.5739ZM150.004 31.8739C151.404 30.3739 152.204 28.3739 152.104 26.3739V26.2739C152.104 24.1739 151.404 22.1739 150.004 20.6739C148.604 19.1739 146.604 18.2739 144.504 18.3739C142.404 18.2739 140.404 19.1739 139.104 20.6739C137.704 22.1739 136.904 24.1739 137.004 26.1739V26.2739C136.804 28.3739 137.604 30.3739 139.104 31.8739C140.504 33.3739 142.504 34.2739 144.604 34.1739C146.604 34.2739 148.604 33.3739 150.004 31.8739Z" fill="white"/>
<path d="M160.304 22.074C160.304 21.374 160.604 20.674 161.104 20.174C161.604 19.674 162.304 19.374 163.004 19.374C163.704 19.374 164.404 19.674 164.904 20.174C165.404 20.674 165.704 21.374 165.704 22.074V22.274C167.004 20.374 169.104 19.274 171.404 19.174C173.204 19.074 175.004 19.774 176.204 21.074C177.404 22.574 178.004 24.374 177.904 26.374V36.374C177.904 37.074 177.604 37.774 177.104 38.274C176.604 38.774 175.904 39.074 175.204 39.074C174.504 39.074 173.804 38.774 173.304 38.274C172.804 37.774 172.504 37.074 172.504 36.374V28.174C172.504 25.574 171.404 24.274 169.204 24.274C166.904 24.274 165.804 25.574 165.804 28.174V36.374C165.804 37.074 165.504 37.774 165.004 38.274C164.504 38.774 163.804 39.074 163.104 39.074C162.404 39.074 161.704 38.774 161.204 38.274C160.704 37.774 160.404 37.074 160.404 36.374V22.074H160.304Z" fill="white"/>
<path d="M181.004 15.074C181.004 14.374 181.304 13.674 181.804 13.174C182.304 12.674 183.004 12.374 183.804 12.374C184.504 12.374 185.204 12.674 185.704 13.174C186.204 13.674 186.504 14.374 186.504 15.074V36.374C186.504 37.074 186.204 37.774 185.704 38.274C185.204 38.774 184.504 39.074 183.804 39.074C183.104 39.074 182.404 38.774 181.904 38.274C181.404 37.774 181.104 37.074 181.104 36.374V15.074H181.004Z" fill="white"/>
<path d="M190.004 14.974C190.004 14.274 190.304 13.574 190.904 13.074C191.504 12.574 192.304 12.374 193.004 12.374C193.804 12.374 194.604 12.574 195.204 13.074C195.804 13.574 196.104 14.274 196.104 14.974V15.074C196.104 15.774 195.804 16.474 195.204 16.974C194.604 17.474 193.804 17.674 193.004 17.674C192.204 17.674 191.404 17.474 190.804 16.974C190.304 16.474 190.004 15.774 190.004 14.974ZM190.304 22.074C190.304 21.374 190.604 20.674 191.104 20.174C191.604 19.674 192.304 19.374 193.004 19.374C193.704 19.374 194.404 19.674 194.904 20.174C195.404 20.674 195.704 21.374 195.704 22.074V36.374C195.704 37.074 195.404 37.774 194.904 38.274C194.404 38.774 193.704 39.074 193.004 39.074C192.304 39.074 191.604 38.774 191.104 38.274C190.604 37.774 190.304 37.074 190.304 36.374V22.074Z" fill="white"/>
<path d="M199.304 22.074C199.304 21.374 199.604 20.674 200.104 20.174C200.604 19.674 201.304 19.374 202.104 19.374C202.804 19.374 203.504 19.674 204.004 20.174C204.504 20.674 204.804 21.374 204.804 22.074V22.274C206.104 20.374 208.204 19.274 210.504 19.174C212.304 19.074 214.104 19.774 215.304 21.074C216.504 22.574 217.104 24.374 217.004 26.374V36.374C217.004 37.074 216.704 37.774 216.204 38.274C215.704 38.774 215.004 39.074 214.304 39.074C213.604 39.074 212.904 38.774 212.404 38.274C211.904 37.774 211.604 37.074 211.604 36.374V28.174C211.604 25.574 210.504 24.274 208.304 24.274C206.004 24.274 204.904 25.574 204.904 28.174V36.374C204.904 37.074 204.604 37.774 204.104 38.274C203.604 38.774 202.904 39.074 202.204 39.074C201.504 39.074 200.804 38.774 200.304 38.274C199.804 37.774 199.504 37.074 199.504 36.374L199.304 22.074Z" fill="white"/>
<path d="M229.704 39.2742C227.004 39.3742 224.404 38.3742 222.504 36.4742C220.604 34.5742 219.504 31.9742 219.604 29.2742V29.1742C219.504 26.5742 220.504 23.9742 222.304 22.0742C224.104 20.1742 226.604 19.0742 229.204 19.0742C231.904 18.9742 234.504 20.1742 236.304 22.1742C237.804 23.8742 238.504 26.0742 238.504 28.3742C238.504 29.0742 238.304 29.7742 237.804 30.2742C237.304 30.7742 236.604 30.9742 236.004 30.9742H225.004C225.304 33.2742 227.404 34.9742 229.704 34.7742C231.104 34.7742 232.504 34.2742 233.604 33.4742C234.004 33.1742 234.504 33.0742 234.904 33.0742C235.504 33.0742 236.004 33.2742 236.404 33.6742C236.804 34.0742 237.004 34.6742 237.004 35.1742C237.004 35.7742 236.704 36.3742 236.304 36.7742C234.504 38.5742 232.104 39.3742 229.704 39.2742ZM233.204 27.6742C232.804 24.9742 231.504 23.5742 229.104 23.5742C226.804 23.5742 225.404 24.9742 224.904 27.6742H233.204Z" fill="white"/>
</svg>
