<svg width="255" height="57" viewBox="0 0 255 57" fill="none" xmlns="http://www.w3.org/2000/svg">
<path d="M4.89266 41.5037L2.7286 48.8259H0L7.05674 25.4512H10.2558L17.3125 48.8259H14.4898L12.3258 41.5037H4.89266ZM11.6671 39.1568L9.59716 32.3979C9.12671 30.8959 8.84443 29.4878 8.56216 28.1735H8.46809C8.18582 29.5816 7.80946 30.9898 7.4331 32.3979L5.36311 39.1568H11.6671Z" fill="#58595B"/>
<path d="M30.3918 48.1692C29.6391 48.5447 28.1336 49.1079 26.1577 49.1079C21.6414 49.1079 18.7246 45.6346 18.7246 40.5654C18.7246 35.4024 21.8296 31.6475 26.7223 31.6475C28.3218 31.6475 29.7331 32.1168 30.4859 32.4923L29.8272 34.8392C29.1686 34.4637 28.1336 34.0882 26.7223 34.0882C23.335 34.0882 21.4532 36.9044 21.4532 40.3777C21.4532 44.2265 23.6173 46.6672 26.6282 46.6672C28.1336 46.6672 29.1686 46.1978 29.9213 45.8224L30.3918 48.1692Z" fill="#58595B"/>
<path d="M44.0343 48.1692C43.2816 48.5447 41.7762 49.1079 39.8003 49.1079C35.284 49.1079 32.3672 45.6346 32.3672 40.5654C32.3672 35.4024 35.4722 31.6475 40.3648 31.6475C41.9644 31.6475 43.3757 32.1168 44.1284 32.4923L43.4698 34.8392C42.8112 34.4637 41.7762 34.0882 40.3648 34.0882C36.9776 34.0882 35.0958 36.9044 35.0958 40.3777C35.0958 44.2265 37.2599 46.6672 40.2707 46.6672C41.7762 46.6672 42.8112 46.1978 43.5639 45.8224L44.0343 48.1692Z" fill="#58595B"/>
<path d="M60.4062 40.2839C60.4062 46.4795 56.6426 49.2019 52.9731 49.2019C48.9272 49.2019 45.8223 45.9163 45.8223 40.5655C45.8223 34.933 49.1154 31.6475 53.1613 31.6475C57.5835 31.6475 60.4062 35.2147 60.4062 40.2839ZM48.645 40.4716C48.645 44.1327 50.5268 46.9489 53.1613 46.9489C55.7017 46.9489 57.6776 44.2266 57.6776 40.4716C57.6776 37.6554 56.4544 33.9943 53.2554 33.9943C50.0563 33.9943 48.645 37.2799 48.645 40.4716Z" fill="#58595B"/>
<path d="M76.3072 44.2263C76.3072 45.916 76.3073 47.5119 76.4013 48.8262H74.0491L73.8609 46.1038H73.7668C73.0141 47.418 71.5087 49.2017 68.8742 49.2017C66.5219 49.2017 63.6992 47.7935 63.6992 41.8794V32.0226H66.4278V41.3162C66.4278 44.5079 67.2746 46.667 69.721 46.667C71.5087 46.667 72.8259 45.2589 73.2964 43.8508C73.4846 43.3814 73.5786 42.8182 73.5786 42.2549V31.9287H76.3072V44.2263Z" fill="#58595B"/>
<path d="M80.8226 36.6216C80.8226 34.9319 80.8226 33.4299 80.7285 32.1157H83.0808L83.269 34.9319H83.363C84.1157 33.3361 85.8094 31.7402 88.2557 31.7402C90.3257 31.7402 93.5248 33.1483 93.5248 38.8745V48.8249H90.7962V39.1561C90.7962 36.4338 89.9493 34.1809 87.3148 34.1809C85.5271 34.1809 84.1158 35.589 83.6453 37.2787C83.5512 37.6542 83.4571 38.2174 83.4571 38.6867V48.8249H80.7285V36.6216H80.8226Z" fill="#58595B"/>
<path d="M100.959 27.2354V32.0228H104.816V34.3697H100.959V43.3814C100.959 45.4466 101.523 46.6669 103.029 46.6669C103.781 46.6669 104.252 46.5731 104.628 46.4792L104.722 48.7321C104.158 49.0137 103.405 49.1076 102.37 49.1076C101.147 49.1076 100.112 48.6383 99.4533 47.7934C98.7006 46.8547 98.4183 45.4466 98.4183 43.4753V34.3697H96.1602V32.0228H98.4183V27.9863L100.959 27.2354Z" fill="#58595B"/>
<path d="M110.838 27.3287C110.838 28.3613 110.179 29.2061 109.144 29.2061C108.204 29.2061 107.545 28.3613 107.545 27.3287C107.545 26.296 108.298 25.4512 109.239 25.4512C110.274 25.4512 110.838 26.296 110.838 27.3287ZM107.827 48.8259V32.0224H110.556V48.8259H107.827Z" fill="#58595B"/>
<path d="M115.073 36.6216C115.073 34.9319 115.073 33.4299 114.979 32.1157H117.331L117.519 34.9319H117.613C118.366 33.3361 120.059 31.7402 122.506 31.7402C124.576 31.7402 127.775 33.1483 127.775 38.8745V48.8249H125.046V39.1561C125.046 36.4338 124.199 34.1809 121.565 34.1809C119.777 34.1809 118.366 35.589 117.895 37.2787C117.801 37.6542 117.707 38.2174 117.707 38.6867V48.8249H114.979V36.6216H115.073Z" fill="#58595B"/>
<path d="M144.898 32.023C144.804 33.2433 144.804 34.5575 144.804 36.6227V46.3855C144.804 50.2343 144.145 52.5811 142.64 54.0831C141.228 55.5851 139.064 56.0545 137.277 56.0545C135.489 56.0545 133.513 55.5851 132.29 54.6464L132.949 52.2995C133.889 52.9566 135.489 53.6137 137.277 53.6137C140.005 53.6137 142.075 52.0179 142.075 47.7936V45.9162H141.981C141.134 47.512 139.535 48.7324 137.277 48.7324C133.607 48.7324 130.973 45.1652 130.973 40.5654C130.973 34.933 134.266 31.6475 137.653 31.6475C140.193 31.6475 141.605 33.1494 142.263 34.5575H142.358L142.452 32.023H144.898ZM142.075 38.6879C142.075 38.1247 142.075 37.7492 141.887 37.2798C141.417 35.4963 140.099 34.0882 138.123 34.0882C135.583 34.0882 133.701 36.5289 133.701 40.3777C133.701 43.6632 135.207 46.3855 138.123 46.3855C139.817 46.3855 141.323 45.1652 141.887 43.2877C142.075 42.7245 142.075 42.1612 142.075 41.6919V38.6879Z" fill="#58595B"/>
<path d="M149.039 45.1648C150.262 46.0097 151.956 46.6668 153.838 46.6668C156.566 46.6668 158.166 45.0709 158.166 42.7241C158.166 40.565 157.037 39.2508 154.308 38.1243C150.921 36.8101 148.851 34.8387 148.851 31.5532C148.851 27.8921 151.485 25.2637 155.531 25.2637C157.695 25.2637 159.201 25.8269 160.142 26.3902L159.389 28.8309C158.73 28.4554 157.319 27.7044 155.437 27.7044C152.615 27.7044 151.58 29.5818 151.58 31.1777C151.58 33.3368 152.803 34.4633 155.72 35.6836C159.201 37.1856 160.989 39.1569 160.989 42.5364C160.989 46.1035 158.636 49.2952 153.744 49.2952C151.768 49.2952 149.604 48.6381 148.475 47.7933L149.039 45.1648Z" fill="#FFDD00"/>
<path d="M176.889 44.2263C176.889 45.916 176.889 47.5119 176.983 48.8262H174.631L174.443 46.1038H174.349C173.596 47.418 172.091 49.2017 169.456 49.2017C167.104 49.2017 164.281 47.7935 164.281 41.8794V32.0226H167.01V41.3162C167.01 44.5079 167.857 46.667 170.303 46.667C172.091 46.667 173.408 45.2589 173.878 43.8508C174.067 43.3814 174.161 42.8182 174.161 42.2549V31.9287H176.889V44.2263Z" fill="#FFDD00"/>
<path d="M184.322 27.3287C184.322 28.3613 183.664 29.2061 182.629 29.2061C181.688 29.2061 181.029 28.3613 181.029 27.3287C181.029 26.296 181.782 25.4512 182.723 25.4512C183.664 25.4512 184.322 26.296 184.322 27.3287ZM181.312 48.8259V32.0224H184.04V48.8259H181.312Z" fill="#FFDD00"/>
<path d="M191.756 27.2354V32.0228H195.613V34.3697H191.756V43.3814C191.756 45.4466 192.32 46.6669 193.826 46.6669C194.578 46.6669 195.049 46.5731 195.425 46.4792L195.519 48.7321C194.955 49.0137 194.202 49.1076 193.167 49.1076C191.944 49.1076 190.909 48.6383 190.25 47.7934C189.497 46.8547 189.215 45.4466 189.215 43.4753V34.3697H186.957V32.0228H189.215V27.9863L191.756 27.2354Z" fill="#FFDD00"/>
<path d="M200.035 41.0337C200.129 45.1641 202.387 46.8539 205.116 46.8539C207.092 46.8539 208.221 46.4784 209.256 46.009L209.726 48.1681C208.785 48.6375 207.186 49.2007 204.739 49.2007C200.129 49.2007 197.4 45.8213 197.4 40.7521C197.4 35.6829 200.035 31.7402 204.363 31.7402C209.256 31.7402 210.479 36.5278 210.479 39.6256C210.479 40.2827 210.385 40.7521 210.385 41.0337H200.035ZM207.938 38.7807C207.938 36.8094 207.186 33.8055 204.175 33.8055C201.446 33.8055 200.223 36.6217 200.035 38.7807H207.938Z" fill="#FFDD00"/>
<path d="M217.63 19.8178V18.4099C217.63 18.1283 217.348 17.8467 217.066 17.8467H211.326C211.044 17.8467 210.762 18.1283 210.762 18.4099V19.8178C210.762 20.0994 211.044 20.381 211.326 20.381H217.066C217.348 20.381 217.63 20.0994 217.63 19.8178Z" fill="#FFDD00"/>
<path d="M247.738 11.1818C247.738 11.1818 247.55 3.01479 237.953 0.386313C237.953 0.386313 229.579 -2.42991 223.463 7.14525H217.817C217.817 7.14525 216.688 7.05137 216.594 8.55336C216.594 8.55336 216.312 9.96147 218.1 9.8676C219.887 9.77372 229.108 9.8676 229.108 9.8676C229.108 9.8676 230.049 9.8676 230.049 11.088C230.049 11.088 230.331 12.2144 229.202 12.4022C228.073 12.5899 214.242 12.4022 214.242 12.4022C214.242 12.4022 212.831 12.4022 212.831 13.8103C212.831 13.8103 212.454 15.3123 214.148 15.3123C215.841 15.3123 232.778 15.3123 232.778 15.3123C232.778 15.3123 234.189 15.1245 234.283 16.4388C234.283 16.4388 234.754 17.9408 233.154 17.8469H220.264C220.264 17.8469 218.946 17.8469 218.946 19.1611C218.946 19.1611 218.758 20.6631 220.264 20.6631H235.036C235.036 20.6631 236.071 20.4754 236.353 21.4141C237.482 21.7896 238.705 21.9774 239.928 21.508C241.528 20.8509 241.81 18.8795 240.493 17.753C239.74 17.0959 238.799 16.8143 237.858 16.4388C236.918 16.0633 236.071 15.5 235.412 14.749C234.942 14.0919 234.754 13.4348 234.754 12.5899H232.119C231.837 12.5899 231.554 12.3083 231.554 12.0267V10.5247C231.554 10.2431 231.837 9.96147 232.119 9.96147H235.694C235.789 9.96147 235.883 9.96147 235.977 10.0553C236.071 9.96147 236.165 9.8676 236.259 9.8676C236.729 9.4921 237.294 9.30435 237.953 9.21048C238.141 9.21048 238.235 9.1166 238.141 8.92886C238.141 8.27174 238.141 7.61462 238.141 6.9575C238.141 6.86363 238.141 6.86363 238.141 6.76975C238.611 6.76975 238.988 6.76975 239.458 6.76975C239.458 7.14525 239.458 7.42687 239.458 7.80237C239.458 8.08399 239.458 8.36561 239.458 8.74111C239.458 9.02273 239.552 9.02273 239.74 9.02273C240.587 9.02273 241.434 9.30435 242.187 9.67985C242.375 9.77372 242.469 9.8676 242.375 10.0553C242.187 10.4308 242.093 10.9002 241.904 11.2757C241.434 11.088 241.058 10.9002 240.587 10.8063C239.552 10.5247 238.611 10.4308 237.576 10.9002C236.823 11.1818 236.447 11.839 236.447 12.5899C236.447 13.3409 236.729 13.9042 237.388 14.2797C238.047 14.6552 238.799 15.0307 239.552 15.4062C240.117 15.6878 240.587 15.8755 241.152 16.251C242.375 17.002 243.033 18.1285 243.033 19.5366C243.033 20.5692 242.657 21.4141 242.093 22.0712C241.434 22.7283 240.681 23.1977 239.74 23.3855C239.458 23.4793 239.364 23.5732 239.458 23.8548C239.458 24.512 239.458 25.1691 239.458 25.9201C239.082 25.9201 238.705 25.9201 238.235 25.9201C238.047 25.9201 237.953 25.9201 237.953 25.6384C237.953 24.9813 237.953 24.4181 237.953 23.761C237.953 23.6671 237.953 23.6671 237.953 23.5732C237.388 23.4793 236.824 23.4793 236.353 23.2916C236.165 23.2916 235.977 23.1977 235.788 23.1038C235.694 23.1977 235.506 23.1977 235.412 23.1977C234.942 23.2916 219.323 23.2916 215.089 23.2916C213.771 23.2916 213.113 24.7936 213.96 25.7323H215.089H236.824L231.554 33.7116L243.033 25.7323H248.302C248.302 25.7323 253.477 25.1691 254.795 19.6305C256.112 14.0919 250.749 10.5247 247.738 11.1818Z" fill="#FFDD00"/>
</svg>
