<svg width="387" height="81" viewBox="0 0 387 81" fill="none" xmlns="http://www.w3.org/2000/svg">
<path d="M159.761 0.663086H45.6609C42.4609 0.663086 39.9609 3.26309 39.9609 6.36309C39.9609 9.56309 42.5609 12.0631 45.6609 12.0631H71.4609C74.6609 12.0631 77.1609 14.6631 77.1609 17.7631C77.1609 20.9631 74.5609 23.4631 71.4609 23.4631H6.66094C3.56094 23.6631 0.960938 26.1631 0.960938 29.3631C0.960938 32.5631 3.56094 35.0631 6.66094 35.0631H61.1609C64.3609 35.0631 66.8609 37.6631 66.8609 40.7631C66.8609 43.9631 64.2609 46.4631 61.1609 46.4631H35.6609C32.4609 46.4631 29.9609 49.0631 29.9609 52.1631C29.9609 55.3631 32.5609 57.8631 35.6609 57.8631H67.3609C70.5609 57.8631 73.0609 60.4631 73.0609 63.5631C73.0609 66.7631 70.4609 69.2631 67.3609 69.2631H60.9609C57.7609 69.2631 55.2609 71.8631 55.2609 74.9631C55.2609 78.1631 57.8609 80.6631 60.9609 80.6631H160.361C182.561 80.6631 200.561 62.6631 200.561 40.4631C200.561 40.2631 200.561 40.0631 200.561 39.9631C200.261 18.2631 181.761 0.663086 159.761 0.663086Z" fill="url(#paint0_linear)"/>
<path d="M44.8609 69.563H29.1609C25.9609 69.563 23.4609 72.163 23.4609 75.263C23.4609 78.463 26.0609 80.963 29.1609 80.963H44.8609C48.0609 80.963 50.5609 78.363 50.5609 75.263C50.5609 72.163 47.9609 69.563 44.8609 69.563Z" fill="url(#paint1_linear)"/>
<path d="M24.5613 12.1631H28.9613C32.1613 12.1631 34.6613 9.56309 34.6613 6.46309C34.7613 3.26309 32.1613 0.663086 28.9613 0.663086H24.5613C21.3613 0.663086 18.8613 3.26309 18.8613 6.36309C18.8613 9.56309 21.4613 12.1631 24.5613 12.1631Z" fill="url(#paint2_linear)"/>
<path d="M26.2613 52.3631C26.2613 49.1631 23.6613 46.6631 20.5613 46.6631C17.3613 46.6631 14.8613 49.2631 14.8613 52.3631C14.8613 55.5631 17.4613 58.0631 20.5613 58.0631C23.6613 58.0631 26.2613 55.5631 26.2613 52.3631Z" fill="url(#paint3_linear)"/>
<path d="M219.262 56.5732C215.262 52.6732 213.062 47.2732 213.162 41.6732V41.5732C213.062 35.9732 215.262 30.5732 219.362 26.6732C223.462 22.5732 229.062 20.2732 234.962 20.4732C240.762 20.2732 246.362 22.4732 250.562 26.5732C254.562 30.4732 256.762 35.8732 256.662 41.4732V41.5732C256.762 47.1732 254.562 52.5732 250.562 56.4732C246.462 60.5732 240.762 62.7732 234.962 62.6732C228.962 62.8732 223.362 60.6732 219.262 56.5732ZM243.762 50.6732C246.062 48.2732 247.262 44.9732 247.162 41.6732V41.5732C247.262 38.2732 245.962 34.9732 243.762 32.5732C241.362 30.0732 238.162 28.6732 234.762 28.7732C231.462 28.6732 228.162 30.0732 225.962 32.4732C223.662 34.8732 222.462 38.0732 222.562 41.4732V41.5732C222.462 44.9732 223.762 48.1732 226.062 50.5732C228.362 53.0732 231.562 54.4732 234.962 54.3732C238.262 54.4732 241.462 53.1732 243.762 50.6732Z" fill="#646464"/>
<path d="M260.463 34.7731C260.463 33.5731 260.863 32.4731 261.763 31.6731C262.563 30.8731 263.763 30.3731 264.863 30.3731C266.063 30.3731 267.163 30.7731 267.963 31.6731C268.763 32.4731 269.263 33.6731 269.263 34.7731V35.0731C271.863 31.7731 274.963 30.0731 278.463 30.0731C281.363 29.8731 284.263 31.0731 286.263 33.1731C288.163 35.1731 289.063 38.0731 289.063 41.6731V57.7731C289.063 58.9731 288.663 60.0731 287.763 60.8731C286.963 61.6731 285.763 62.1731 284.663 62.1731C283.463 62.1731 282.363 61.7731 281.563 60.8731C280.763 60.0731 280.263 58.8731 280.263 57.7731V44.5731C280.263 40.2731 278.463 38.1731 274.863 38.1731C271.163 38.1731 269.363 40.2731 269.363 44.5731V57.8731C269.363 59.0731 268.963 60.1731 268.063 60.9731C267.263 61.7731 266.063 62.2731 264.963 62.2731C263.763 62.2731 262.663 61.8731 261.863 60.9731C261.063 60.1731 260.563 58.9731 260.563 57.8731L260.463 34.7731Z" fill="#646464"/>
<path d="M293.963 23.4732C293.963 22.2732 294.363 21.1732 295.263 20.3732C296.063 19.5732 297.263 19.0732 298.363 19.0732C299.563 19.0732 300.663 19.4732 301.463 20.3732C302.263 21.1732 302.763 22.3732 302.763 23.4732V57.8732C302.763 59.0732 302.363 60.1732 301.463 60.9732C300.663 61.7732 299.463 62.2732 298.363 62.2732C297.163 62.2732 296.063 61.8732 295.263 60.9732C294.463 60.1732 293.963 58.9732 293.963 57.8732V23.4732Z" fill="#646464"/>
<path d="M308.463 23.2733C308.463 22.0733 308.963 20.9733 309.963 20.2733C310.963 19.4733 312.163 19.0733 313.463 19.1733C314.763 19.0733 315.963 19.4733 317.063 20.2733C317.963 20.9733 318.463 22.1733 318.463 23.2733V23.3733C318.463 24.5733 317.963 25.6733 317.063 26.3733C316.063 27.1733 314.763 27.5733 313.463 27.5733C312.163 27.6733 310.963 27.1733 309.963 26.3733C308.963 25.6733 308.463 24.5733 308.463 23.3733V23.2733ZM308.963 34.7733C308.963 33.5733 309.363 32.4733 310.263 31.6733C311.063 30.8733 312.263 30.3733 313.363 30.3733C314.563 30.3733 315.663 30.7733 316.463 31.6733C317.263 32.4733 317.763 33.6733 317.763 34.7733V57.8733C317.763 59.0733 317.363 60.1733 316.463 60.9733C315.663 61.7733 314.463 62.2733 313.363 62.2733C312.163 62.2733 311.063 61.8733 310.263 60.9733C309.463 60.1733 308.963 58.9733 308.963 57.8733V34.7733Z" fill="#646464"/>
<path d="M323.562 34.7731C323.562 33.5731 323.962 32.4731 324.862 31.6731C325.662 30.8731 326.863 30.3731 327.963 30.3731C329.163 30.3731 330.262 30.7731 331.062 31.6731C331.863 32.4731 332.362 33.6731 332.362 34.7731V35.0731C334.962 31.7731 338.062 30.0731 341.562 30.0731C344.462 29.8731 347.362 31.0731 349.362 33.1731C351.262 35.1731 352.162 38.0731 352.162 41.6731V57.7731C352.162 58.9731 351.762 60.0731 350.862 60.8731C350.062 61.6731 348.863 62.1731 347.763 62.1731C346.563 62.1731 345.462 61.7731 344.662 60.8731C343.862 60.0731 343.362 58.8731 343.362 57.7731V44.5731C343.362 40.2731 341.563 38.1731 337.963 38.1731C334.263 38.1731 332.463 40.2731 332.463 44.5731V57.8731C332.463 59.0731 332.062 60.1731 331.162 60.9731C330.362 61.7731 329.162 62.2731 328.062 62.2731C326.862 62.2731 325.763 61.8731 324.963 60.9731C324.163 60.1731 323.662 58.9731 323.662 57.8731L323.562 34.7731Z" fill="#646464"/>
<path d="M372.663 62.6732C368.363 62.7732 364.163 61.1732 360.963 58.1732C357.863 55.0732 356.163 50.8732 356.263 46.4732V46.3732C356.163 42.1732 357.662 37.9732 360.562 34.8732C363.362 31.7732 367.463 29.9732 371.663 30.0732C376.062 29.8732 380.262 31.7732 383.062 35.1732C385.462 37.9732 386.663 41.4732 386.663 45.1732C386.663 46.2732 386.263 47.3732 385.463 48.2732C384.663 49.0732 383.563 49.4732 382.463 49.4732H365.163C366.062 53.5732 368.563 55.5732 372.763 55.5732C375.063 55.5732 377.262 54.8732 379.062 53.4732C379.662 52.9732 380.463 52.7732 381.263 52.7732C382.163 52.7732 383.062 53.0732 383.663 53.7732C384.363 54.4732 384.663 55.3732 384.663 56.2732C384.663 57.2732 384.263 58.2732 383.463 58.8732C380.463 61.3732 376.663 62.7732 372.663 62.6732ZM378.362 43.8732C377.762 39.4732 375.563 37.2732 371.763 37.2732C368.063 37.2732 365.763 39.4732 364.963 43.8732H378.362Z" fill="#646464"/>
<path d="M127.993 61.493C133.693 56.293 136.793 48.9929 136.693 41.3929V40.193H100.793C100.793 45.493 105.093 49.7929 110.393 49.7929H123.793C122.293 52.7929 119.893 55.293 116.993 56.993C114.193 58.793 110.993 59.693 107.693 59.693C104.993 59.693 102.393 59.1929 99.9932 58.0929C97.4932 56.9929 95.2932 55.493 93.4932 53.493C92.6932 52.693 91.8932 51.693 91.2932 50.693C90.5932 49.693 90.0932 48.593 89.5932 47.493C89.0932 46.393 88.7932 45.2929 88.5932 44.0929C88.3932 42.9929 88.2932 41.793 88.2932 40.693C88.2932 38.093 88.8932 35.493 89.9932 33.193C91.0932 30.793 92.5932 28.6929 94.5932 26.8929C96.2932 25.3929 98.2932 24.1929 100.493 23.3929C102.693 22.5929 104.993 22.193 107.293 22.193C110.093 22.193 112.893 22.893 115.393 24.193C117.893 25.393 120.093 27.293 121.693 29.493H133.893C131.793 24.293 128.093 19.7929 123.193 16.8929C118.393 13.8929 112.893 12.2929 107.193 12.2929C99.4932 12.1929 91.9932 15.193 86.5932 20.693C80.9932 25.993 77.7932 33.3929 77.9932 41.0929C77.8932 48.7929 81.0932 56.1929 86.7932 61.3929C92.2932 66.7929 99.6932 69.6929 107.393 69.5929C115.093 69.6929 122.493 66.793 127.993 61.493Z" fill="white"/>
<path d="M155.893 12.1931C148.193 12.1931 140.793 15.2931 135.393 20.7931C139.593 26.5931 141.893 33.6931 141.893 40.8931C141.893 48.0931 139.593 55.0931 135.393 60.9931C140.793 66.4931 148.193 69.5931 155.893 69.5931C171.693 69.5931 184.593 56.7931 184.593 40.8931C184.593 24.9931 171.693 12.1931 155.893 12.1931ZM175.292 43.5931L143.993 61.6931C147.593 55.3931 149.493 48.1931 149.493 40.9931C149.493 33.6931 147.593 26.5931 143.993 20.2931L175.292 38.3931C176.792 39.2931 177.293 41.1931 176.393 42.5931C176.193 42.8931 175.792 43.2931 175.292 43.5931Z" fill="white"/>
<defs>
<linearGradient id="paint0_linear" x1="16.5359" y1="40.7848" x2="181.769" y2="40.7848" gradientUnits="userSpaceOnUse">
<stop stop-color="#8CCA37"/>
<stop offset="0.5" stop-color="#45B062"/>
<stop offset="1" stop-color="#179981"/>
</linearGradient>
<linearGradient id="paint1_linear" x1="16.5509" y1="75.4185" x2="181.699" y2="75.4185" gradientUnits="userSpaceOnUse">
<stop stop-color="#8CCA37"/>
<stop offset="0.5" stop-color="#45B062"/>
<stop offset="1" stop-color="#179981"/>
</linearGradient>
<linearGradient id="paint2_linear" x1="16.5525" y1="6.49275" x2="181.699" y2="6.49275" gradientUnits="userSpaceOnUse">
<stop stop-color="#8CCA37"/>
<stop offset="0.5" stop-color="#45B062"/>
<stop offset="1" stop-color="#179981"/>
</linearGradient>
<linearGradient id="paint3_linear" x1="16.5413" y1="52.444" x2="181.716" y2="52.444" gradientUnits="userSpaceOnUse">
<stop stop-color="#8CCA37"/>
<stop offset="0.5" stop-color="#45B062"/>
<stop offset="1" stop-color="#179981"/>
</linearGradient>
</defs>
</svg>
